<svg fill="#000000" version="1.1" id="Capa_1" xmlns="http://www.w3.org/2000/svg" xmlns:xlink="http://www.w3.org/1999/xlink" width="64px" height="64px" viewBox="0 0 577.86 577.86" xml:space="preserve" stroke="#000000"><g id="SVGRepo_bgCarrier" stroke-width="0"></g><g id="SVGRepo_tracerCarrier" stroke-linecap="round" stroke-linejoin="round"></g><g id="SVGRepo_iconCarrier"> <g> <path d="M388.996,85.921C367.576,54.709,324.124-14.447,277,2.689c-52.632,19.584-94.248,89.352-123.624,133.416 c-16.524,25.092-78.336,110.772-41.004,140.76c1.836,1.836,4.896,1.836,7.344,1.836c25.092,12.24,64.26,4.896,91.188,4.896 c4.896,0,9.792,0,14.688,0c-0.612,89.963-29.988,187.272-4.284,274.788c1.836,5.508,5.508,7.956,9.18,8.568 c0,0.612,0.612,1.224,0.612,1.836c7.956,13.464,38.556,7.956,52.02,7.956c23.256,0,47.125,0.612,70.38-3.672 c5.508-1.225,8.568-4.896,9.18-9.181c1.836-1.836,3.061-4.896,3.061-8.567c-1.225-92.412-12.24-182.376-6.732-274.788 c29.376,0,58.752,1.224,88.128,5.508c3.672,0.612,6.732-0.612,9.181-1.836c7.344,6.12,22.644-0.612,20.808-13.464 C467.944,205.873,424.492,139.165,388.996,85.921z"></path> </g> </g></svg>